<svg viewBox="0 0 1440 1024" fill="none" xmlns="http://www.w3.org/2000/svg">
<g clip-path="url(#clip0_257_263)">
<rect width="1440" height="1024" fill="#0F4C75"/>
<rect x="-100" y="400" width="1969.54" height="21" transform="rotate(-40 -180 600)" fill="#F5F5F5" fill-opacity="0.2"/>
<rect x="-103" y="485" width="1969.54" height="21" transform="rotate(-40 -170 794)" fill="#F5F5F5" fill-opacity="0.2"/>
<rect x="-236" y="968.55" width="1715.61" height="21" transform="rotate(-40 -236 968.55)" fill="#F5F5F5" fill-opacity="0.2"/>
<rect x="-243" y="1054.61" width="1855.38" height="21" transform="rotate(-40 -246 1098.55)" fill="#F5F5F5" fill-opacity="0.2"/>
<rect x="-260" y="1131" width="1969.54" height="21" transform="rotate(-40 -320 1008.55)" fill="#F5F5F5" fill-opacity="0.2"/>
<rect x="-69" y="1695" width="1969.54" height="21" transform="rotate(-40 -400 1295)" fill="#F5F5F5" fill-opacity="0.2"/>
<rect x="33" y="1694" width="1969.54" height="21" transform="rotate(-40 -330 1294)" fill="#F5F5F5" fill-opacity="0.2"/>
<path d="M1232.04 27.6583H1234.97V36.8333C1234.97 37.1626 1235.1 37.4785 1235.33 37.7113C1235.56 37.9442 1235.88 38.075 1236.21 38.075H1250.79C1251.12 38.075 1251.44 37.9442 1251.67 37.7113C1251.9 37.4785 1252.03 37.1626 1252.03 36.8333V27.6583H1254.96H1255.48L1255.09 27.3103L1244.34 17.5312C1244.34 17.5312 1244.34 17.5312 1244.34 17.5312C1244.11 17.3232 1243.81 17.208 1243.5 17.208C1243.19 17.208 1242.89 17.3232 1242.66 17.5312C1242.66 17.5312 1242.66 17.5312 1242.66 17.5312L1231.91 27.3103L1231.52 27.6583H1232.04ZM1249.55 25.627V35.5917H1237.45V25.627L1243.5 20.1276L1249.55 25.627Z" fill="#0F4C75" stroke="#0F4C75" stroke-width="0.4"/>
<path d="M1321.58 30.8458V33.0229C1320.64 32.6895 1319.63 32.5873 1318.64 32.7247C1317.65 32.8622 1316.71 33.2353 1315.89 33.8127C1315.07 34.3901 1314.41 35.155 1313.95 36.0431C1313.49 36.9312 1313.25 37.9166 1313.25 38.9166L1311.17 38.9156C1311.17 37.6436 1311.46 36.3884 1312.02 35.2462C1312.58 34.104 1313.39 33.1051 1314.4 32.326C1315.4 31.547 1316.57 31.0084 1317.82 30.7517C1319.06 30.4949 1320.35 30.5268 1321.58 30.8448V30.8458ZM1319.5 29.5416C1316.05 29.5416 1313.25 26.7448 1313.25 23.2916C1313.25 19.8385 1316.05 17.0416 1319.5 17.0416C1322.95 17.0416 1325.75 19.8385 1325.75 23.2916C1325.75 26.7448 1322.95 29.5416 1319.5 29.5416ZM1319.5 27.4583C1321.8 27.4583 1323.67 25.5937 1323.67 23.2916C1323.67 20.9895 1321.8 19.125 1319.5 19.125C1317.2 19.125 1315.33 20.9895 1315.33 23.2916C1315.33 25.5937 1317.2 27.4583 1319.5 27.4583ZM1325.75 33.7083V30.5833H1327.83V33.7083H1330.96V35.7916H1327.83V38.9166H1325.75V35.7916H1322.63V33.7083H1325.75Z" fill="#0F4C75"/>
</g>
<defs>
<clipPath id="clip0_257_263">
<rect width="1440" height="1024" fill="white"/>
</clipPath>
</defs>
</svg>
